<?xml version="1.0" encoding="utf-8" standalone="no"?>
<!DOCTYPE svg PUBLIC "-//W3C//DTD SVG 1.1//EN"
  "http://www.w3.org/Graphics/SVG/1.1/DTD/svg11.dtd">
<!-- Created with matplotlib (https://matplotlib.org/) -->
<svg height="252pt" version="1.1" viewBox="0 0 252 252" width="252pt" xmlns="http://www.w3.org/2000/svg" xmlns:xlink="http://www.w3.org/1999/xlink">
 <defs>
  <style type="text/css">
*{stroke-linecap:butt;stroke-linejoin:round;}
  </style>
 </defs>
 <g id="figure_1">
  <g id="patch_1">
   <path d="M 0 252 
L 252 252 
L 252 0 
L 0 0 
z
" style="fill:#ffffff;"/>
  </g>
  <g id="axes_1">
   <g id="patch_2">
    <path d="M 47.675 210.2 
L 241.2 210.2 
L 241.2 26.8 
L 47.675 26.8 
z
" style="fill:#ffffff;"/>
   </g>
   <g id="matplotlib.axis_1">
    <g id="xtick_1">
     <g id="line2d_1">
      <defs>
       <path d="M 0 0 
L 0 3.5 
" id="mbac7be47ea" style="stroke:#000000;stroke-width:0.8;"/>
      </defs>
      <g>
       <use style="stroke:#000000;stroke-width:0.8;" x="56.471591" xlink:href="#mbac7be47ea" y="210.2"/>
      </g>
     </g>
     <g id="text_1">
      <!-- 0.0 -->
      <defs>
       <path d="M 31.78125 66.40625 
Q 24.171875 66.40625 20.328125 58.90625 
Q 16.5 51.421875 16.5 36.375 
Q 16.5 21.390625 20.328125 13.890625 
Q 24.171875 6.390625 31.78125 6.390625 
Q 39.453125 6.390625 43.28125 13.890625 
Q 47.125 21.390625 47.125 36.375 
Q 47.125 51.421875 43.28125 58.90625 
Q 39.453125 66.40625 31.78125 66.40625 
z
M 31.78125 74.21875 
Q 44.046875 74.21875 50.515625 64.515625 
Q 56.984375 54.828125 56.984375 36.375 
Q 56.984375 17.96875 50.515625 8.265625 
Q 44.046875 -1.421875 31.78125 -1.421875 
Q 19.53125 -1.421875 13.0625 8.265625 
Q 6.59375 17.96875 6.59375 36.375 
Q 6.59375 54.828125 13.0625 64.515625 
Q 19.53125 74.21875 31.78125 74.21875 
z
" id="DejaVuSans-48"/>
       <path d="M 10.6875 12.40625 
L 21 12.40625 
L 21 0 
L 10.6875 0 
z
" id="DejaVuSans-46"/>
      </defs>
      <g transform="translate(48.520028 224.798437)scale(0.1 -0.1)">
       <use xlink:href="#DejaVuSans-48"/>
       <use x="63.623047" xlink:href="#DejaVuSans-46"/>
       <use x="95.410156" xlink:href="#DejaVuSans-48"/>
      </g>
     </g>
    </g>
    <g id="xtick_2">
     <g id="line2d_2">
      <g>
       <use style="stroke:#000000;stroke-width:0.8;" x="91.657955" xlink:href="#mbac7be47ea" y="210.2"/>
      </g>
     </g>
     <g id="text_2">
      <!-- 0.2 -->
      <defs>
       <path d="M 19.1875 8.296875 
L 53.609375 8.296875 
L 53.609375 0 
L 7.328125 0 
L 7.328125 8.296875 
Q 12.9375 14.109375 22.625 23.890625 
Q 32.328125 33.6875 34.8125 36.53125 
Q 39.546875 41.84375 41.421875 45.53125 
Q 43.3125 49.21875 43.3125 52.78125 
Q 43.3125 58.59375 39.234375 62.25 
Q 35.15625 65.921875 28.609375 65.921875 
Q 23.96875 65.921875 18.8125 64.3125 
Q 13.671875 62.703125 7.8125 59.421875 
L 7.8125 69.390625 
Q 13.765625 71.78125 18.9375 73 
Q 24.125 74.21875 28.421875 74.21875 
Q 39.75 74.21875 46.484375 68.546875 
Q 53.21875 62.890625 53.21875 53.421875 
Q 53.21875 48.921875 51.53125 44.890625 
Q 49.859375 40.875 45.40625 35.40625 
Q 44.1875 33.984375 37.640625 27.21875 
Q 31.109375 20.453125 19.1875 8.296875 
z
" id="DejaVuSans-50"/>
      </defs>
      <g transform="translate(83.706392 224.798437)scale(0.1 -0.1)">
       <use xlink:href="#DejaVuSans-48"/>
       <use x="63.623047" xlink:href="#DejaVuSans-46"/>
       <use x="95.410156" xlink:href="#DejaVuSans-50"/>
      </g>
     </g>
    </g>
    <g id="xtick_3">
     <g id="line2d_3">
      <g>
       <use style="stroke:#000000;stroke-width:0.8;" x="126.844318" xlink:href="#mbac7be47ea" y="210.2"/>
      </g>
     </g>
     <g id="text_3">
      <!-- 0.4 -->
      <defs>
       <path d="M 37.796875 64.3125 
L 12.890625 25.390625 
L 37.796875 25.390625 
z
M 35.203125 72.90625 
L 47.609375 72.90625 
L 47.609375 25.390625 
L 58.015625 25.390625 
L 58.015625 17.1875 
L 47.609375 17.1875 
L 47.609375 0 
L 37.796875 0 
L 37.796875 17.1875 
L 4.890625 17.1875 
L 4.890625 26.703125 
z
" id="DejaVuSans-52"/>
      </defs>
      <g transform="translate(118.892756 224.798437)scale(0.1 -0.1)">
       <use xlink:href="#DejaVuSans-48"/>
       <use x="63.623047" xlink:href="#DejaVuSans-46"/>
       <use x="95.410156" xlink:href="#DejaVuSans-52"/>
      </g>
     </g>
    </g>
    <g id="xtick_4">
     <g id="line2d_4">
      <g>
       <use style="stroke:#000000;stroke-width:0.8;" x="162.030682" xlink:href="#mbac7be47ea" y="210.2"/>
      </g>
     </g>
     <g id="text_4">
      <!-- 0.6 -->
      <defs>
       <path d="M 33.015625 40.375 
Q 26.375 40.375 22.484375 35.828125 
Q 18.609375 31.296875 18.609375 23.390625 
Q 18.609375 15.53125 22.484375 10.953125 
Q 26.375 6.390625 33.015625 6.390625 
Q 39.65625 6.390625 43.53125 10.953125 
Q 47.40625 15.53125 47.40625 23.390625 
Q 47.40625 31.296875 43.53125 35.828125 
Q 39.65625 40.375 33.015625 40.375 
z
M 52.59375 71.296875 
L 52.59375 62.3125 
Q 48.875 64.0625 45.09375 64.984375 
Q 41.3125 65.921875 37.59375 65.921875 
Q 27.828125 65.921875 22.671875 59.328125 
Q 17.53125 52.734375 16.796875 39.40625 
Q 19.671875 43.65625 24.015625 45.921875 
Q 28.375 48.1875 33.59375 48.1875 
Q 44.578125 48.1875 50.953125 41.515625 
Q 57.328125 34.859375 57.328125 23.390625 
Q 57.328125 12.15625 50.6875 5.359375 
Q 44.046875 -1.421875 33.015625 -1.421875 
Q 20.359375 -1.421875 13.671875 8.265625 
Q 6.984375 17.96875 6.984375 36.375 
Q 6.984375 53.65625 15.1875 63.9375 
Q 23.390625 74.21875 37.203125 74.21875 
Q 40.921875 74.21875 44.703125 73.484375 
Q 48.484375 72.75 52.59375 71.296875 
z
" id="DejaVuSans-54"/>
      </defs>
      <g transform="translate(154.079119 224.798437)scale(0.1 -0.1)">
       <use xlink:href="#DejaVuSans-48"/>
       <use x="63.623047" xlink:href="#DejaVuSans-46"/>
       <use x="95.410156" xlink:href="#DejaVuSans-54"/>
      </g>
     </g>
    </g>
    <g id="xtick_5">
     <g id="line2d_5">
      <g>
       <use style="stroke:#000000;stroke-width:0.8;" x="197.217045" xlink:href="#mbac7be47ea" y="210.2"/>
      </g>
     </g>
     <g id="text_5">
      <!-- 0.8 -->
      <defs>
       <path d="M 31.78125 34.625 
Q 24.75 34.625 20.71875 30.859375 
Q 16.703125 27.09375 16.703125 20.515625 
Q 16.703125 13.921875 20.71875 10.15625 
Q 24.75 6.390625 31.78125 6.390625 
Q 38.8125 6.390625 42.859375 10.171875 
Q 46.921875 13.96875 46.921875 20.515625 
Q 46.921875 27.09375 42.890625 30.859375 
Q 38.875 34.625 31.78125 34.625 
z
M 21.921875 38.8125 
Q 15.578125 40.375 12.03125 44.71875 
Q 8.5 49.078125 8.5 55.328125 
Q 8.5 64.0625 14.71875 69.140625 
Q 20.953125 74.21875 31.78125 74.21875 
Q 42.671875 74.21875 48.875 69.140625 
Q 55.078125 64.0625 55.078125 55.328125 
Q 55.078125 49.078125 51.53125 44.71875 
Q 48 40.375 41.703125 38.8125 
Q 48.828125 37.15625 52.796875 32.3125 
Q 56.78125 27.484375 56.78125 20.515625 
Q 56.78125 9.90625 50.3125 4.234375 
Q 43.84375 -1.421875 31.78125 -1.421875 
Q 19.734375 -1.421875 13.25 4.234375 
Q 6.78125 9.90625 6.78125 20.515625 
Q 6.78125 27.484375 10.78125 32.3125 
Q 14.796875 37.15625 21.921875 38.8125 
z
M 18.3125 54.390625 
Q 18.3125 48.734375 21.84375 45.5625 
Q 25.390625 42.390625 31.78125 42.390625 
Q 38.140625 42.390625 41.71875 45.5625 
Q 45.3125 48.734375 45.3125 54.390625 
Q 45.3125 60.0625 41.71875 63.234375 
Q 38.140625 66.40625 31.78125 66.40625 
Q 25.390625 66.40625 21.84375 63.234375 
Q 18.3125 60.0625 18.3125 54.390625 
z
" id="DejaVuSans-56"/>
      </defs>
      <g transform="translate(189.265483 224.798437)scale(0.1 -0.1)">
       <use xlink:href="#DejaVuSans-48"/>
       <use x="63.623047" xlink:href="#DejaVuSans-46"/>
       <use x="95.410156" xlink:href="#DejaVuSans-56"/>
      </g>
     </g>
    </g>
    <g id="xtick_6">
     <g id="line2d_6">
      <g>
       <use style="stroke:#000000;stroke-width:0.8;" x="232.403409" xlink:href="#mbac7be47ea" y="210.2"/>
      </g>
     </g>
     <g id="text_6">
      <!-- 1.0 -->
      <defs>
       <path d="M 12.40625 8.296875 
L 28.515625 8.296875 
L 28.515625 63.921875 
L 10.984375 60.40625 
L 10.984375 69.390625 
L 28.421875 72.90625 
L 38.28125 72.90625 
L 38.28125 8.296875 
L 54.390625 8.296875 
L 54.390625 0 
L 12.40625 0 
z
" id="DejaVuSans-49"/>
      </defs>
      <g transform="translate(224.451847 224.798437)scale(0.1 -0.1)">
       <use xlink:href="#DejaVuSans-49"/>
       <use x="63.623047" xlink:href="#DejaVuSans-46"/>
       <use x="95.410156" xlink:href="#DejaVuSans-48"/>
      </g>
     </g>
    </g>
    <g id="text_7">
     <!-- false positive rate -->
     <defs>
      <path d="M 37.109375 75.984375 
L 37.109375 68.5 
L 28.515625 68.5 
Q 23.6875 68.5 21.796875 66.546875 
Q 19.921875 64.59375 19.921875 59.515625 
L 19.921875 54.6875 
L 34.71875 54.6875 
L 34.71875 47.703125 
L 19.921875 47.703125 
L 19.921875 0 
L 10.890625 0 
L 10.890625 47.703125 
L 2.296875 47.703125 
L 2.296875 54.6875 
L 10.890625 54.6875 
L 10.890625 58.5 
Q 10.890625 67.625 15.140625 71.796875 
Q 19.390625 75.984375 28.609375 75.984375 
z
" id="DejaVuSans-102"/>
      <path d="M 34.28125 27.484375 
Q 23.390625 27.484375 19.1875 25 
Q 14.984375 22.515625 14.984375 16.5 
Q 14.984375 11.71875 18.140625 8.90625 
Q 21.296875 6.109375 26.703125 6.109375 
Q 34.1875 6.109375 38.703125 11.40625 
Q 43.21875 16.703125 43.21875 25.484375 
L 43.21875 27.484375 
z
M 52.203125 31.203125 
L 52.203125 0 
L 43.21875 0 
L 43.21875 8.296875 
Q 40.140625 3.328125 35.546875 0.953125 
Q 30.953125 -1.421875 24.3125 -1.421875 
Q 15.921875 -1.421875 10.953125 3.296875 
Q 6 8.015625 6 15.921875 
Q 6 25.140625 12.171875 29.828125 
Q 18.359375 34.515625 30.609375 34.515625 
L 43.21875 34.515625 
L 43.21875 35.40625 
Q 43.21875 41.609375 39.140625 45 
Q 35.0625 48.390625 27.6875 48.390625 
Q 23 48.390625 18.546875 47.265625 
Q 14.109375 46.140625 10.015625 43.890625 
L 10.015625 52.203125 
Q 14.9375 54.109375 19.578125 55.046875 
Q 24.21875 56 28.609375 56 
Q 40.484375 56 46.34375 49.84375 
Q 52.203125 43.703125 52.203125 31.203125 
z
" id="DejaVuSans-97"/>
      <path d="M 9.421875 75.984375 
L 18.40625 75.984375 
L 18.40625 0 
L 9.421875 0 
z
" id="DejaVuSans-108"/>
      <path d="M 44.28125 53.078125 
L 44.28125 44.578125 
Q 40.484375 46.53125 36.375 47.5 
Q 32.28125 48.484375 27.875 48.484375 
Q 21.1875 48.484375 17.84375 46.4375 
Q 14.5 44.390625 14.5 40.28125 
Q 14.5 37.15625 16.890625 35.375 
Q 19.28125 33.59375 26.515625 31.984375 
L 29.59375 31.296875 
Q 39.15625 29.25 43.1875 25.515625 
Q 47.21875 21.78125 47.21875 15.09375 
Q 47.21875 7.46875 41.1875 3.015625 
Q 35.15625 -1.421875 24.609375 -1.421875 
Q 20.21875 -1.421875 15.453125 -0.5625 
Q 10.6875 0.296875 5.421875 2 
L 5.421875 11.28125 
Q 10.40625 8.6875 15.234375 7.390625 
Q 20.0625 6.109375 24.8125 6.109375 
Q 31.15625 6.109375 34.5625 8.28125 
Q 37.984375 10.453125 37.984375 14.40625 
Q 37.984375 18.0625 35.515625 20.015625 
Q 33.0625 21.96875 24.703125 23.78125 
L 21.578125 24.515625 
Q 13.234375 26.265625 9.515625 29.90625 
Q 5.8125 33.546875 5.8125 39.890625 
Q 5.8125 47.609375 11.28125 51.796875 
Q 16.75 56 26.8125 56 
Q 31.78125 56 36.171875 55.265625 
Q 40.578125 54.546875 44.28125 53.078125 
z
" id="DejaVuSans-115"/>
      <path d="M 56.203125 29.59375 
L 56.203125 25.203125 
L 14.890625 25.203125 
Q 15.484375 15.921875 20.484375 11.0625 
Q 25.484375 6.203125 34.421875 6.203125 
Q 39.59375 6.203125 44.453125 7.46875 
Q 49.3125 8.734375 54.109375 11.28125 
L 54.109375 2.78125 
Q 49.265625 0.734375 44.1875 -0.34375 
Q 39.109375 -1.421875 33.890625 -1.421875 
Q 20.796875 -1.421875 13.15625 6.1875 
Q 5.515625 13.8125 5.515625 26.8125 
Q 5.515625 40.234375 12.765625 48.109375 
Q 20.015625 56 32.328125 56 
Q 43.359375 56 49.78125 48.890625 
Q 56.203125 41.796875 56.203125 29.59375 
z
M 47.21875 32.234375 
Q 47.125 39.59375 43.09375 43.984375 
Q 39.0625 48.390625 32.421875 48.390625 
Q 24.90625 48.390625 20.390625 44.140625 
Q 15.875 39.890625 15.1875 32.171875 
z
" id="DejaVuSans-101"/>
      <path id="DejaVuSans-32"/>
      <path d="M 18.109375 8.203125 
L 18.109375 -20.796875 
L 9.078125 -20.796875 
L 9.078125 54.6875 
L 18.109375 54.6875 
L 18.109375 46.390625 
Q 20.953125 51.265625 25.265625 53.625 
Q 29.59375 56 35.59375 56 
Q 45.5625 56 51.78125 48.09375 
Q 58.015625 40.1875 58.015625 27.296875 
Q 58.015625 14.40625 51.78125 6.484375 
Q 45.5625 -1.421875 35.59375 -1.421875 
Q 29.59375 -1.421875 25.265625 0.953125 
Q 20.953125 3.328125 18.109375 8.203125 
z
M 48.6875 27.296875 
Q 48.6875 37.203125 44.609375 42.84375 
Q 40.53125 48.484375 33.40625 48.484375 
Q 26.265625 48.484375 22.1875 42.84375 
Q 18.109375 37.203125 18.109375 27.296875 
Q 18.109375 17.390625 22.1875 11.75 
Q 26.265625 6.109375 33.40625 6.109375 
Q 40.53125 6.109375 44.609375 11.75 
Q 48.6875 17.390625 48.6875 27.296875 
z
" id="DejaVuSans-112"/>
      <path d="M 30.609375 48.390625 
Q 23.390625 48.390625 19.1875 42.75 
Q 14.984375 37.109375 14.984375 27.296875 
Q 14.984375 17.484375 19.15625 11.84375 
Q 23.34375 6.203125 30.609375 6.203125 
Q 37.796875 6.203125 41.984375 11.859375 
Q 46.1875 17.53125 46.1875 27.296875 
Q 46.1875 37.015625 41.984375 42.703125 
Q 37.796875 48.390625 30.609375 48.390625 
z
M 30.609375 56 
Q 42.328125 56 49.015625 48.375 
Q 55.71875 40.765625 55.71875 27.296875 
Q 55.71875 13.875 49.015625 6.21875 
Q 42.328125 -1.421875 30.609375 -1.421875 
Q 18.84375 -1.421875 12.171875 6.21875 
Q 5.515625 13.875 5.515625 27.296875 
Q 5.515625 40.765625 12.171875 48.375 
Q 18.84375 56 30.609375 56 
z
" id="DejaVuSans-111"/>
      <path d="M 9.421875 54.6875 
L 18.40625 54.6875 
L 18.40625 0 
L 9.421875 0 
z
M 9.421875 75.984375 
L 18.40625 75.984375 
L 18.40625 64.59375 
L 9.421875 64.59375 
z
" id="DejaVuSans-105"/>
      <path d="M 18.3125 70.21875 
L 18.3125 54.6875 
L 36.8125 54.6875 
L 36.8125 47.703125 
L 18.3125 47.703125 
L 18.3125 18.015625 
Q 18.3125 11.328125 20.140625 9.421875 
Q 21.96875 7.515625 27.59375 7.515625 
L 36.8125 7.515625 
L 36.8125 0 
L 27.59375 0 
Q 17.1875 0 13.234375 3.875 
Q 9.28125 7.765625 9.28125 18.015625 
L 9.28125 47.703125 
L 2.6875 47.703125 
L 2.6875 54.6875 
L 9.28125 54.6875 
L 9.28125 70.21875 
z
" id="DejaVuSans-116"/>
      <path d="M 2.984375 54.6875 
L 12.5 54.6875 
L 29.59375 8.796875 
L 46.6875 54.6875 
L 56.203125 54.6875 
L 35.6875 0 
L 23.484375 0 
z
" id="DejaVuSans-118"/>
      <path d="M 41.109375 46.296875 
Q 39.59375 47.171875 37.8125 47.578125 
Q 36.03125 48 33.890625 48 
Q 26.265625 48 22.1875 43.046875 
Q 18.109375 38.09375 18.109375 28.8125 
L 18.109375 0 
L 9.078125 0 
L 9.078125 54.6875 
L 18.109375 54.6875 
L 18.109375 46.1875 
Q 20.953125 51.171875 25.484375 53.578125 
Q 30.03125 56 36.53125 56 
Q 37.453125 56 38.578125 55.875 
Q 39.703125 55.765625 41.0625 55.515625 
z
" id="DejaVuSans-114"/>
     </defs>
     <g transform="translate(99.596094 238.476562)scale(0.1 -0.1)">
      <use xlink:href="#DejaVuSans-102"/>
      <use x="35.205078" xlink:href="#DejaVuSans-97"/>
      <use x="96.484375" xlink:href="#DejaVuSans-108"/>
      <use x="124.267578" xlink:href="#DejaVuSans-115"/>
      <use x="176.367188" xlink:href="#DejaVuSans-101"/>
      <use x="237.890625" xlink:href="#DejaVuSans-32"/>
      <use x="269.677734" xlink:href="#DejaVuSans-112"/>
      <use x="333.154297" xlink:href="#DejaVuSans-111"/>
      <use x="394.335938" xlink:href="#DejaVuSans-115"/>
      <use x="446.435547" xlink:href="#DejaVuSans-105"/>
      <use x="474.21875" xlink:href="#DejaVuSans-116"/>
      <use x="513.427734" xlink:href="#DejaVuSans-105"/>
      <use x="541.210938" xlink:href="#DejaVuSans-118"/>
      <use x="600.390625" xlink:href="#DejaVuSans-101"/>
      <use x="661.914062" xlink:href="#DejaVuSans-32"/>
      <use x="693.701172" xlink:href="#DejaVuSans-114"/>
      <use x="734.814453" xlink:href="#DejaVuSans-97"/>
      <use x="796.09375" xlink:href="#DejaVuSans-116"/>
      <use x="835.302734" xlink:href="#DejaVuSans-101"/>
     </g>
    </g>
   </g>
   <g id="matplotlib.axis_2">
    <g id="ytick_1">
     <g id="line2d_7">
      <defs>
       <path d="M 0 0 
L -3.5 0 
" id="mc95fd0581a" style="stroke:#000000;stroke-width:0.8;"/>
      </defs>
      <g>
       <use style="stroke:#000000;stroke-width:0.8;" x="47.675" xlink:href="#mc95fd0581a" y="201.863636"/>
      </g>
     </g>
     <g id="text_8">
      <!-- 0.0 -->
      <g transform="translate(24.771875 205.662855)scale(0.1 -0.1)">
       <use xlink:href="#DejaVuSans-48"/>
       <use x="63.623047" xlink:href="#DejaVuSans-46"/>
       <use x="95.410156" xlink:href="#DejaVuSans-48"/>
      </g>
     </g>
    </g>
    <g id="ytick_2">
     <g id="line2d_8">
      <g>
       <use style="stroke:#000000;stroke-width:0.8;" x="47.675" xlink:href="#mc95fd0581a" y="168.518182"/>
      </g>
     </g>
     <g id="text_9">
      <!-- 0.2 -->
      <g transform="translate(24.771875 172.317401)scale(0.1 -0.1)">
       <use xlink:href="#DejaVuSans-48"/>
       <use x="63.623047" xlink:href="#DejaVuSans-46"/>
       <use x="95.410156" xlink:href="#DejaVuSans-50"/>
      </g>
     </g>
    </g>
    <g id="ytick_3">
     <g id="line2d_9">
      <g>
       <use style="stroke:#000000;stroke-width:0.8;" x="47.675" xlink:href="#mc95fd0581a" y="135.172727"/>
      </g>
     </g>
     <g id="text_10">
      <!-- 0.4 -->
      <g transform="translate(24.771875 138.971946)scale(0.1 -0.1)">
       <use xlink:href="#DejaVuSans-48"/>
       <use x="63.623047" xlink:href="#DejaVuSans-46"/>
       <use x="95.410156" xlink:href="#DejaVuSans-52"/>
      </g>
     </g>
    </g>
    <g id="ytick_4">
     <g id="line2d_10">
      <g>
       <use style="stroke:#000000;stroke-width:0.8;" x="47.675" xlink:href="#mc95fd0581a" y="101.827273"/>
      </g>
     </g>
     <g id="text_11">
      <!-- 0.6 -->
      <g transform="translate(24.771875 105.626491)scale(0.1 -0.1)">
       <use xlink:href="#DejaVuSans-48"/>
       <use x="63.623047" xlink:href="#DejaVuSans-46"/>
       <use x="95.410156" xlink:href="#DejaVuSans-54"/>
      </g>
     </g>
    </g>
    <g id="ytick_5">
     <g id="line2d_11">
      <g>
       <use style="stroke:#000000;stroke-width:0.8;" x="47.675" xlink:href="#mc95fd0581a" y="68.481818"/>
      </g>
     </g>
     <g id="text_12">
      <!-- 0.8 -->
      <g transform="translate(24.771875 72.281037)scale(0.1 -0.1)">
       <use xlink:href="#DejaVuSans-48"/>
       <use x="63.623047" xlink:href="#DejaVuSans-46"/>
       <use x="95.410156" xlink:href="#DejaVuSans-56"/>
      </g>
     </g>
    </g>
    <g id="ytick_6">
     <g id="line2d_12">
      <g>
       <use style="stroke:#000000;stroke-width:0.8;" x="47.675" xlink:href="#mc95fd0581a" y="35.136364"/>
      </g>
     </g>
     <g id="text_13">
      <!-- 1.0 -->
      <g transform="translate(24.771875 38.935582)scale(0.1 -0.1)">
       <use xlink:href="#DejaVuSans-49"/>
       <use x="63.623047" xlink:href="#DejaVuSans-46"/>
       <use x="95.410156" xlink:href="#DejaVuSans-48"/>
      </g>
     </g>
    </g>
    <g id="text_14">
     <!-- true positive rate -->
     <defs>
      <path d="M 8.5 21.578125 
L 8.5 54.6875 
L 17.484375 54.6875 
L 17.484375 21.921875 
Q 17.484375 14.15625 20.5 10.265625 
Q 23.53125 6.390625 29.59375 6.390625 
Q 36.859375 6.390625 41.078125 11.03125 
Q 45.3125 15.671875 45.3125 23.6875 
L 45.3125 54.6875 
L 54.296875 54.6875 
L 54.296875 0 
L 45.3125 0 
L 45.3125 8.40625 
Q 42.046875 3.421875 37.71875 1 
Q 33.40625 -1.421875 27.6875 -1.421875 
Q 18.265625 -1.421875 13.375 4.4375 
Q 8.5 10.296875 8.5 21.578125 
z
M 31.109375 56 
z
" id="DejaVuSans-117"/>
     </defs>
     <g transform="translate(18.692187 161.707812)rotate(-90)scale(0.1 -0.1)">
      <use xlink:href="#DejaVuSans-116"/>
      <use x="39.208984" xlink:href="#DejaVuSans-114"/>
      <use x="80.322266" xlink:href="#DejaVuSans-117"/>
      <use x="143.701172" xlink:href="#DejaVuSans-101"/>
      <use x="205.224609" xlink:href="#DejaVuSans-32"/>
      <use x="237.011719" xlink:href="#DejaVuSans-112"/>
      <use x="300.488281" xlink:href="#DejaVuSans-111"/>
      <use x="361.669922" xlink:href="#DejaVuSans-115"/>
      <use x="413.769531" xlink:href="#DejaVuSans-105"/>
      <use x="441.552734" xlink:href="#DejaVuSans-116"/>
      <use x="480.761719" xlink:href="#DejaVuSans-105"/>
      <use x="508.544922" xlink:href="#DejaVuSans-118"/>
      <use x="567.724609" xlink:href="#DejaVuSans-101"/>
      <use x="629.248047" xlink:href="#DejaVuSans-32"/>
      <use x="661.035156" xlink:href="#DejaVuSans-114"/>
      <use x="702.148438" xlink:href="#DejaVuSans-97"/>
      <use x="763.427734" xlink:href="#DejaVuSans-116"/>
      <use x="802.636719" xlink:href="#DejaVuSans-101"/>
     </g>
    </g>
   </g>
   <g id="line2d_13">
    <path clip-path="url(#pbc2de798df)" d="M 56.471591 201.863636 
L 56.588879 201.863636 
L 56.588879 201.752485 
L 56.706167 201.752485 
L 56.706167 201.530182 
L 56.823455 201.530182 
L 56.823455 200.752121 
L 56.940742 200.752121 
L 56.940742 200.196364 
L 57.05803 200.196364 
L 57.05803 199.307152 
L 57.175318 199.307152 
L 57.175318 198.417939 
L 57.292606 198.417939 
L 57.292606 197.528727 
L 57.527182 197.528727 
L 57.527182 197.306424 
L 57.64447 197.306424 
L 57.64447 197.084121 
L 57.761758 197.084121 
L 57.761758 196.861818 
L 57.879045 196.861818 
L 57.879045 196.639515 
L 57.996333 196.639515 
L 57.996333 196.306061 
L 58.230909 196.306061 
L 58.230909 195.861455 
L 58.348197 195.861455 
L 58.348197 195.528 
L 58.465485 195.528 
L 58.465485 195.416848 
L 58.582773 195.416848 
L 58.582773 194.305333 
L 58.817348 194.305333 
L 58.817348 193.860727 
L 58.934636 193.860727 
L 58.934636 193.527273 
L 59.051924 193.527273 
L 59.051924 191.86 
L 59.521076 191.86 
L 59.521076 191.304242 
L 59.755652 191.304242 
L 59.755652 191.081939 
L 59.872939 191.081939 
L 59.872939 190.748485 
L 59.990227 190.748485 
L 59.990227 189.081212 
L 60.107515 189.081212 
L 60.107515 187.858545 
L 60.224803 187.858545 
L 60.224803 187.525091 
L 60.342091 187.525091 
L 60.342091 186.74703 
L 60.459379 186.74703 
L 60.459379 186.191273 
L 60.576667 186.191273 
L 60.576667 186.080121 
L 60.693955 186.080121 
L 60.693955 185.302061 
L 60.811242 185.302061 
L 60.811242 185.190909 
L 60.92853 185.190909 
L 60.92853 184.079394 
L 61.045818 184.079394 
L 61.045818 183.745939 
L 61.163106 183.745939 
L 61.163106 183.634788 
L 61.280394 183.634788 
L 61.280394 183.301333 
L 61.397682 183.301333 
L 61.397682 182.856727 
L 61.51497 182.856727 
L 61.51497 182.078667 
L 61.749545 182.078667 
L 61.749545 181.967515 
L 61.866833 181.967515 
L 61.866833 179.855636 
L 61.984121 179.855636 
L 61.984121 177.966061 
L 62.335985 177.966061 
L 62.335985 177.521455 
L 62.453273 177.521455 
L 62.453273 177.076848 
L 62.570561 177.076848 
L 62.570561 176.743394 
L 62.687848 176.743394 
L 62.687848 176.187636 
L 62.805136 176.187636 
L 62.805136 175.74303 
L 62.922424 175.74303 
L 62.922424 173.631152 
L 63.039712 173.631152 
L 63.039712 171.852727 
L 63.157 171.852727 
L 63.157 170.518909 
L 63.274288 170.518909 
L 63.274288 169.407394 
L 63.391576 169.407394 
L 63.391576 169.296242 
L 63.626152 169.296242 
L 63.626152 169.185091 
L 63.860727 169.185091 
L 63.860727 169.073939 
L 63.978015 169.073939 
L 63.978015 168.629333 
L 64.095303 168.629333 
L 64.095303 165.961697 
L 64.212591 165.961697 
L 64.212591 165.739394 
L 64.447167 165.739394 
L 64.447167 165.405939 
L 64.564455 165.405939 
L 64.564455 164.405576 
L 64.681742 164.405576 
L 64.681742 163.294061 
L 64.916318 163.294061 
L 64.916318 162.960606 
L 65.033606 162.960606 
L 65.033606 162.516 
L 65.150894 162.516 
L 65.150894 160.626424 
L 65.268182 160.626424 
L 65.268182 160.404121 
L 65.38547 160.404121 
L 65.38547 159.181455 
L 65.502758 159.181455 
L 65.502758 158.514545 
L 65.620045 158.514545 
L 65.620045 157.958788 
L 65.737333 157.958788 
L 65.737333 157.40303 
L 66.089197 157.40303 
L 66.089197 157.180727 
L 66.206485 157.180727 
L 66.206485 156.069212 
L 66.323773 156.069212 
L 66.323773 155.958061 
L 66.441061 155.958061 
L 66.441061 154.624242 
L 66.558348 154.624242 
L 66.558348 154.068485 
L 66.675636 154.068485 
L 66.675636 153.957333 
L 66.792924 153.957333 
L 66.792924 153.73503 
L 66.910212 153.73503 
L 66.910212 153.623879 
L 67.0275 153.623879 
L 67.0275 153.401576 
L 67.262076 153.401576 
L 67.262076 153.290424 
L 67.379364 153.290424 
L 67.379364 152.623515 
L 67.496652 152.623515 
L 67.496652 152.512364 
L 67.613939 152.512364 
L 67.613939 151.734303 
L 67.731227 151.734303 
L 67.731227 149.955879 
L 67.848515 149.955879 
L 67.848515 149.733576 
L 67.965803 149.733576 
L 67.965803 148.955515 
L 68.083091 148.955515 
L 68.083091 148.844364 
L 68.200379 148.844364 
L 68.200379 148.733212 
L 68.434955 148.733212 
L 68.434955 148.288606 
L 68.552242 148.288606 
L 68.552242 147.732848 
L 68.786818 147.732848 
L 68.786818 147.288242 
L 68.904106 147.288242 
L 68.904106 146.732485 
L 69.021394 146.732485 
L 69.021394 145.843273 
L 69.138682 145.843273 
L 69.138682 145.398667 
L 69.25597 145.398667 
L 69.25597 145.287515 
L 69.373258 145.287515 
L 69.373258 144.954061 
L 69.490545 144.954061 
L 69.490545 144.731758 
L 69.607833 144.731758 
L 69.607833 144.620606 
L 69.725121 144.620606 
L 69.725121 143.731394 
L 69.959697 143.731394 
L 69.959697 143.509091 
L 70.076985 143.509091 
L 70.076985 143.175636 
L 70.194273 143.175636 
L 70.194273 142.175273 
L 70.311561 142.175273 
L 70.311561 140.396848 
L 70.428848 140.396848 
L 70.428848 140.174545 
L 70.546136 140.174545 
L 70.546136 139.507636 
L 70.780712 139.507636 
L 70.780712 138.396121 
L 70.898 138.396121 
L 70.898 138.28497 
L 71.015288 138.28497 
L 71.015288 137.951515 
L 71.132576 137.951515 
L 71.132576 137.729212 
L 71.367152 137.729212 
L 71.367152 137.173455 
L 71.484439 137.173455 
L 71.484439 135.839636 
L 71.719015 135.839636 
L 71.719015 135.728485 
L 71.836303 135.728485 
L 71.836303 135.506182 
L 72.070879 135.506182 
L 72.070879 135.283879 
L 72.188167 135.283879 
L 72.188167 135.172727 
L 72.305455 135.172727 
L 72.305455 134.839273 
L 72.422742 134.839273 
L 72.422742 134.728121 
L 72.54003 134.728121 
L 72.54003 133.394303 
L 72.657318 133.394303 
L 72.657318 133.172 
L 72.891894 133.172 
L 72.891894 133.060848 
L 73.009182 133.060848 
L 73.009182 132.727394 
L 73.361045 132.727394 
L 73.361045 132.393939 
L 73.595621 132.393939 
L 73.595621 132.282788 
L 73.712909 132.282788 
L 73.712909 132.171636 
L 73.830197 132.171636 
L 73.830197 131.393576 
L 73.947485 131.393576 
L 73.947485 130.94897 
L 74.182061 130.94897 
L 74.182061 130.726667 
L 74.299348 130.726667 
L 74.299348 130.393212 
L 74.416636 130.393212 
L 74.416636 129.726303 
L 74.651212 129.726303 
L 74.651212 129.281697 
L 74.7685 129.281697 
L 74.7685 129.059394 
L 74.885788 129.059394 
L 74.885788 128.948242 
L 75.120364 128.948242 
L 75.120364 128.503636 
L 75.237652 128.503636 
L 75.237652 128.05903 
L 75.354939 128.05903 
L 75.354939 126.502909 
L 75.472227 126.502909 
L 75.472227 126.391758 
L 75.589515 126.391758 
L 75.589515 126.280606 
L 75.706803 126.280606 
L 75.706803 126.169455 
L 75.824091 126.169455 
L 75.824091 125.391394 
L 75.941379 125.391394 
L 75.941379 125.169091 
L 76.058667 125.169091 
L 76.058667 123.279515 
L 76.41053 123.279515 
L 76.41053 123.168364 
L 76.527818 123.168364 
L 76.527818 123.057212 
L 76.762394 123.057212 
L 76.762394 122.946061 
L 76.99697 122.946061 
L 76.99697 121.945697 
L 77.114258 121.945697 
L 77.114258 121.612242 
L 77.231545 121.612242 
L 77.231545 121.167636 
L 77.348833 121.167636 
L 77.348833 121.056485 
L 77.466121 121.056485 
L 77.466121 119.94497 
L 77.583409 119.94497 
L 77.583409 119.500364 
L 77.700697 119.500364 
L 77.700697 119.278061 
L 77.817985 119.278061 
L 77.817985 118.833455 
L 77.935273 118.833455 
L 77.935273 118.611152 
L 78.169848 118.611152 
L 78.169848 116.832727 
L 78.404424 116.832727 
L 78.404424 116.054667 
L 78.521712 116.054667 
L 78.521712 115.610061 
L 78.756288 115.610061 
L 78.756288 115.498909 
L 78.990864 115.498909 
L 78.990864 115.276606 
L 79.108152 115.276606 
L 79.108152 114.943152 
L 79.225439 114.943152 
L 79.225439 114.832 
L 79.342727 114.832 
L 79.342727 114.053939 
L 79.460015 114.053939 
L 79.460015 113.498182 
L 79.694591 113.498182 
L 79.694591 113.275879 
L 80.046455 113.275879 
L 80.046455 113.164727 
L 80.163742 113.164727 
L 80.163742 112.164364 
L 80.398318 112.164364 
L 80.398318 111.942061 
L 80.515606 111.942061 
L 80.515606 111.386303 
L 80.632894 111.386303 
L 80.632894 111.052848 
L 80.86747 111.052848 
L 80.86747 110.719394 
L 80.984758 110.719394 
L 80.984758 110.497091 
L 81.102045 110.497091 
L 81.102045 110.274788 
L 81.336621 110.274788 
L 81.336621 108.162909 
L 81.571197 108.162909 
L 81.571197 107.496 
L 81.805773 107.496 
L 81.805773 107.384848 
L 81.923061 107.384848 
L 81.923061 107.273697 
L 82.040348 107.273697 
L 82.040348 107.162545 
L 82.157636 107.162545 
L 82.157636 107.051394 
L 82.274924 107.051394 
L 82.274924 106.829091 
L 82.5095 106.829091 
L 82.5095 106.606788 
L 82.861364 106.606788 
L 82.861364 106.273333 
L 83.095939 106.273333 
L 83.095939 105.606424 
L 83.213227 105.606424 
L 83.213227 105.27297 
L 83.330515 105.27297 
L 83.330515 105.050667 
L 83.447803 105.050667 
L 83.447803 104.828364 
L 83.565091 104.828364 
L 83.565091 104.606061 
L 83.682379 104.606061 
L 83.682379 104.272606 
L 83.799667 104.272606 
L 83.799667 103.272242 
L 83.916955 103.272242 
L 83.916955 102.716485 
L 84.15153 102.716485 
L 84.15153 102.160727 
L 84.268818 102.160727 
L 84.268818 101.60497 
L 84.503394 101.60497 
L 84.503394 101.049212 
L 84.620682 101.049212 
L 84.620682 100.826909 
L 84.73797 100.826909 
L 84.73797 100.493455 
L 84.855258 100.493455 
L 84.855258 100.271152 
L 84.972545 100.271152 
L 84.972545 99.826545 
L 85.324409 99.826545 
L 85.324409 99.715394 
L 85.441697 99.715394 
L 85.441697 99.270788 
L 85.558985 99.270788 
L 85.558985 99.159636 
L 85.676273 99.159636 
L 85.676273 98.492727 
L 86.028136 98.492727 
L 86.028136 98.270424 
L 86.145424 98.270424 
L 86.145424 97.93697 
L 86.262712 97.93697 
L 86.262712 97.714667 
L 86.38 97.714667 
L 86.38 97.492364 
L 86.497288 97.492364 
L 86.497288 97.381212 
L 86.614576 97.381212 
L 86.614576 96.936606 
L 86.966439 96.936606 
L 86.966439 96.825455 
L 87.083727 96.825455 
L 87.083727 96.269697 
L 87.318303 96.269697 
L 87.318303 96.158545 
L 87.435591 96.158545 
L 87.435591 96.047394 
L 87.670167 96.047394 
L 87.670167 95.491636 
L 87.904742 95.491636 
L 87.904742 95.380485 
L 88.02203 95.380485 
L 88.02203 94.602424 
L 88.139318 94.602424 
L 88.139318 94.380121 
L 88.256606 94.380121 
L 88.256606 94.046667 
L 88.725758 94.046667 
L 88.725758 93.268606 
L 88.960333 93.268606 
L 88.960333 93.046303 
L 89.312197 93.046303 
L 89.312197 92.935152 
L 89.429485 92.935152 
L 89.429485 92.379394 
L 89.898636 92.379394 
L 89.898636 92.045939 
L 90.015924 92.045939 
L 90.015924 91.934788 
L 90.133212 91.934788 
L 90.133212 91.823636 
L 90.2505 91.823636 
L 90.2505 91.601333 
L 90.367788 91.601333 
L 90.367788 91.267879 
L 90.485076 91.267879 
L 90.485076 90.60097 
L 91.071515 90.60097 
L 91.071515 90.156364 
L 91.188803 90.156364 
L 91.188803 90.045212 
L 91.540667 90.045212 
L 91.540667 89.267152 
L 91.657955 89.267152 
L 91.657955 87.933333 
L 91.775242 87.933333 
L 91.775242 87.822182 
L 91.89253 87.822182 
L 91.89253 87.71103 
L 92.009818 87.71103 
L 92.009818 86.043758 
L 92.127106 86.043758 
L 92.127106 85.710303 
L 92.244394 85.710303 
L 92.244394 85.599152 
L 92.361682 85.599152 
L 92.361682 85.376848 
L 92.47897 85.376848 
L 92.47897 85.154545 
L 92.596258 85.154545 
L 92.596258 84.821091 
L 92.713545 84.821091 
L 92.713545 84.265333 
L 92.830833 84.265333 
L 92.830833 84.154182 
L 92.948121 84.154182 
L 92.948121 84.04303 
L 93.065409 84.04303 
L 93.065409 83.820727 
L 93.182697 83.820727 
L 93.182697 83.376121 
L 94.121 83.376121 
L 94.121 82.931515 
L 94.238288 82.931515 
L 94.238288 82.820364 
L 94.355576 82.820364 
L 94.355576 82.598061 
L 94.472864 82.598061 
L 94.472864 81.708848 
L 94.942015 81.708848 
L 94.942015 81.597697 
L 95.059303 81.597697 
L 95.059303 81.041939 
L 95.293879 81.041939 
L 95.293879 80.930788 
L 95.645742 80.930788 
L 95.645742 80.819636 
L 95.76303 80.819636 
L 95.76303 80.708485 
L 95.880318 80.708485 
L 95.880318 80.597333 
L 95.997606 80.597333 
L 95.997606 79.374667 
L 96.114894 79.374667 
L 96.114894 79.263515 
L 96.466758 79.263515 
L 96.466758 79.152364 
L 96.584045 79.152364 
L 96.584045 79.041212 
L 96.701333 79.041212 
L 96.701333 78.818909 
L 96.818621 78.818909 
L 96.818621 78.707758 
L 96.935909 78.707758 
L 96.935909 78.485455 
L 97.053197 78.485455 
L 97.053197 78.263152 
L 97.170485 78.263152 
L 97.170485 77.707394 
L 97.405061 77.707394 
L 97.405061 77.596242 
L 97.874212 77.596242 
L 97.874212 77.373939 
L 97.9915 77.373939 
L 97.9915 77.262788 
L 98.343364 77.262788 
L 98.343364 77.151636 
L 98.577939 77.151636 
L 98.577939 77.040485 
L 98.695227 77.040485 
L 98.695227 76.818182 
L 98.812515 76.818182 
L 98.812515 76.70703 
L 99.398955 76.70703 
L 99.398955 76.484727 
L 99.516242 76.484727 
L 99.516242 75.595515 
L 99.63353 75.595515 
L 99.63353 75.373212 
L 99.750818 75.373212 
L 99.750818 75.150909 
L 99.868106 75.150909 
L 99.868106 75.039758 
L 99.985394 75.039758 
L 99.985394 74.817455 
L 100.21997 74.817455 
L 100.21997 74.372848 
L 100.337258 74.372848 
L 100.337258 74.039394 
L 100.454545 74.039394 
L 100.454545 73.817091 
L 100.571833 73.817091 
L 100.571833 73.705939 
L 100.806409 73.705939 
L 100.806409 73.594788 
L 100.923697 73.594788 
L 100.923697 73.261333 
L 101.158273 73.261333 
L 101.158273 73.150182 
L 101.510136 73.150182 
L 101.510136 72.372121 
L 101.627424 72.372121 
L 101.627424 72.26097 
L 101.744712 72.26097 
L 101.744712 71.927515 
L 101.862 71.927515 
L 101.862 71.816364 
L 102.213864 71.816364 
L 102.213864 71.482909 
L 102.448439 71.482909 
L 102.448439 71.371758 
L 102.565727 71.371758 
L 102.565727 71.149455 
L 102.917591 71.149455 
L 102.917591 71.038303 
L 103.152167 71.038303 
L 103.152167 70.927152 
L 103.50403 70.927152 
L 103.50403 70.816 
L 103.621318 70.816 
L 103.621318 70.482545 
L 103.738606 70.482545 
L 103.738606 70.260242 
L 103.855894 70.260242 
L 103.855894 70.149091 
L 103.973182 70.149091 
L 103.973182 69.815636 
L 104.442333 69.815636 
L 104.442333 69.593333 
L 104.559621 69.593333 
L 104.559621 69.482182 
L 104.676909 69.482182 
L 104.676909 69.37103 
L 104.911485 69.37103 
L 104.911485 69.148727 
L 105.380636 69.148727 
L 105.380636 69.037576 
L 105.849788 69.037576 
L 105.849788 68.926424 
L 106.436227 68.926424 
L 106.436227 68.815273 
L 106.553515 68.815273 
L 106.553515 68.704121 
L 106.670803 68.704121 
L 106.670803 68.59297 
L 106.788091 68.59297 
L 106.788091 68.370667 
L 106.905379 68.370667 
L 106.905379 68.259515 
L 107.139955 68.259515 
L 107.139955 67.370303 
L 107.257242 67.370303 
L 107.257242 66.814545 
L 107.37453 66.814545 
L 107.37453 66.369939 
L 107.491818 66.369939 
L 107.491818 66.036485 
L 107.609106 66.036485 
L 107.609106 65.591879 
L 107.726394 65.591879 
L 107.726394 65.369576 
L 107.843682 65.369576 
L 107.843682 65.147273 
L 107.96097 65.147273 
L 107.96097 65.036121 
L 108.078258 65.036121 
L 108.078258 64.92497 
L 108.430121 64.92497 
L 108.430121 64.813818 
L 108.781985 64.813818 
L 108.781985 64.702667 
L 109.016561 64.702667 
L 109.016561 64.369212 
L 109.251136 64.369212 
L 109.251136 64.035758 
L 109.485712 64.035758 
L 109.485712 63.813455 
L 109.837576 63.813455 
L 109.837576 63.702303 
L 109.954864 63.702303 
L 109.954864 63.591152 
L 110.658591 63.591152 
L 110.658591 63.48 
L 110.775879 63.48 
L 110.775879 63.368848 
L 111.362318 63.368848 
L 111.362318 63.146545 
L 111.479606 63.146545 
L 111.479606 63.035394 
L 111.948758 63.035394 
L 111.948758 62.924242 
L 112.300621 62.924242 
L 112.300621 62.701939 
L 112.417909 62.701939 
L 112.417909 62.368485 
L 113.238924 62.368485 
L 113.238924 62.257333 
L 113.356212 62.257333 
L 113.356212 62.146182 
L 113.825364 62.146182 
L 113.825364 61.812727 
L 114.059939 61.812727 
L 114.059939 61.701576 
L 114.294515 61.701576 
L 114.294515 61.590424 
L 114.529091 61.590424 
L 114.529091 61.479273 
L 114.646379 61.479273 
L 114.646379 61.368121 
L 114.880955 61.368121 
L 114.880955 61.25697 
L 115.11553 61.25697 
L 115.11553 61.145818 
L 115.467394 61.145818 
L 115.467394 61.034667 
L 115.584682 61.034667 
L 115.584682 60.812364 
L 115.70197 60.812364 
L 115.70197 60.701212 
L 115.819258 60.701212 
L 115.819258 60.590061 
L 116.053833 60.590061 
L 116.053833 60.256606 
L 116.405697 60.256606 
L 116.405697 60.034303 
L 116.874848 60.034303 
L 116.874848 59.923152 
L 116.992136 59.923152 
L 116.992136 59.812 
L 117.226712 59.812 
L 117.226712 59.700848 
L 117.578576 59.700848 
L 117.578576 59.367394 
L 117.695864 59.367394 
L 117.695864 58.922788 
L 117.930439 58.922788 
L 117.930439 58.700485 
L 118.399591 58.700485 
L 118.399591 58.589333 
L 118.516879 58.589333 
L 118.516879 58.033576 
L 118.98603 58.033576 
L 118.98603 57.922424 
L 119.455182 57.922424 
L 119.455182 57.700121 
L 120.041621 57.700121 
L 120.041621 57.58897 
L 120.158909 57.58897 
L 120.158909 57.477818 
L 120.628061 57.477818 
L 120.628061 57.144364 
L 120.862636 57.144364 
L 120.862636 57.033212 
L 120.979924 57.033212 
L 120.979924 56.810909 
L 121.566364 56.810909 
L 121.566364 56.588606 
L 121.683652 56.588606 
L 121.683652 56.477455 
L 122.270091 56.477455 
L 122.270091 56.366303 
L 122.387379 56.366303 
L 122.387379 56.255152 
L 122.504667 56.255152 
L 122.504667 55.699394 
L 122.739242 55.699394 
L 122.739242 55.588242 
L 123.325682 55.588242 
L 123.325682 55.477091 
L 123.44297 55.477091 
L 123.44297 54.921333 
L 123.560258 54.921333 
L 123.560258 54.810182 
L 124.029409 54.810182 
L 124.029409 54.69903 
L 124.263985 54.69903 
L 124.263985 54.476727 
L 124.381273 54.476727 
L 124.381273 54.365576 
L 124.615848 54.365576 
L 124.615848 54.254424 
L 125.319576 54.254424 
L 125.319576 54.143273 
L 125.436864 54.143273 
L 125.436864 54.032121 
L 126.492455 54.032121 
L 126.492455 53.92097 
L 126.72703 53.92097 
L 126.72703 53.809818 
L 127.430758 53.809818 
L 127.430758 53.698667 
L 127.782621 53.698667 
L 127.782621 53.587515 
L 127.899909 53.587515 
L 127.899909 53.476364 
L 128.017197 53.476364 
L 128.017197 53.254061 
L 128.134485 53.254061 
L 128.134485 53.142909 
L 128.369061 53.142909 
L 128.369061 53.031758 
L 129.659227 53.031758 
L 129.659227 52.809455 
L 129.776515 52.809455 
L 129.776515 52.698303 
L 130.245667 52.698303 
L 130.245667 52.364848 
L 130.59753 52.364848 
L 130.59753 52.253697 
L 131.066682 52.253697 
L 131.066682 52.142545 
L 131.653121 52.142545 
L 131.653121 52.031394 
L 131.887697 52.031394 
L 131.887697 51.920242 
L 132.122273 51.920242 
L 132.122273 51.809091 
L 132.239561 51.809091 
L 132.239561 51.697939 
L 132.474136 51.697939 
L 132.474136 51.586788 
L 133.177864 51.586788 
L 133.177864 51.364485 
L 134.116167 51.364485 
L 134.116167 51.253333 
L 134.585318 51.253333 
L 134.585318 51.142182 
L 135.758197 51.142182 
L 135.758197 51.03103 
L 137.400227 51.03103 
L 137.400227 50.919879 
L 137.517515 50.919879 
L 137.517515 50.808727 
L 138.455818 50.808727 
L 138.455818 50.475273 
L 138.573106 50.475273 
L 138.573106 50.364121 
L 138.807682 50.364121 
L 138.807682 50.141818 
L 139.042258 50.141818 
L 139.042258 50.030667 
L 139.511409 50.030667 
L 139.511409 49.919515 
L 139.745985 49.919515 
L 139.745985 49.808364 
L 140.449712 49.808364 
L 140.449712 49.586061 
L 140.567 49.586061 
L 140.567 49.474909 
L 140.918864 49.474909 
L 140.918864 49.363758 
L 141.036152 49.363758 
L 141.036152 48.808 
L 141.388015 48.808 
L 141.388015 48.696848 
L 141.622591 48.696848 
L 141.622591 48.363394 
L 141.739879 48.363394 
L 141.739879 48.252242 
L 141.857167 48.252242 
L 141.857167 48.141091 
L 141.974455 48.141091 
L 141.974455 48.029939 
L 142.912758 48.029939 
L 142.912758 47.918788 
L 143.733773 47.918788 
L 143.733773 47.807636 
L 143.968348 47.807636 
L 143.968348 47.474182 
L 145.023939 47.474182 
L 145.023939 47.251879 
L 145.141227 47.251879 
L 145.141227 47.140727 
L 145.375803 47.140727 
L 145.375803 47.029576 
L 146.314106 47.029576 
L 146.314106 46.918424 
L 146.431394 46.918424 
L 146.431394 46.807273 
L 146.783258 46.807273 
L 146.783258 46.696121 
L 147.252409 46.696121 
L 147.252409 46.58497 
L 147.838848 46.58497 
L 147.838848 46.473818 
L 148.190712 46.473818 
L 148.190712 46.362667 
L 148.777152 46.362667 
L 148.777152 46.251515 
L 148.894439 46.251515 
L 148.894439 46.140364 
L 150.067318 46.140364 
L 150.067318 46.029212 
L 150.53647 46.029212 
L 150.53647 45.918061 
L 151.005621 45.918061 
L 151.005621 45.806909 
L 153.468667 45.806909 
L 153.468667 45.695758 
L 153.703242 45.695758 
L 153.703242 45.584606 
L 154.524258 45.584606 
L 154.524258 45.473455 
L 155.110697 45.473455 
L 155.110697 45.362303 
L 156.166288 45.362303 
L 156.166288 44.917697 
L 156.518152 44.917697 
L 156.518152 44.806545 
L 156.870015 44.806545 
L 156.870015 44.695394 
L 156.987303 44.695394 
L 156.987303 44.584242 
L 157.339167 44.584242 
L 157.339167 44.473091 
L 157.456455 44.473091 
L 157.456455 44.361939 
L 160.271364 44.361939 
L 160.271364 44.250788 
L 161.209667 44.250788 
L 161.209667 44.139636 
L 161.678818 44.139636 
L 161.678818 44.028485 
L 162.030682 44.028485 
L 162.030682 43.917333 
L 164.962879 43.917333 
L 164.962879 43.806182 
L 165.43203 43.806182 
L 165.43203 43.69503 
L 166.253045 43.69503 
L 166.253045 43.583879 
L 166.487621 43.583879 
L 166.487621 43.361576 
L 166.839485 43.361576 
L 166.839485 43.250424 
L 167.425924 43.250424 
L 167.425924 43.139273 
L 168.129652 43.139273 
L 168.129652 43.028121 
L 169.30253 43.028121 
L 169.30253 42.91697 
L 170.358121 42.91697 
L 170.358121 42.805818 
L 171.296424 42.805818 
L 171.296424 42.694667 
L 172.234727 42.694667 
L 172.234727 42.583515 
L 172.469303 42.583515 
L 172.469303 42.361212 
L 172.586591 42.361212 
L 172.586591 42.250061 
L 172.821167 42.250061 
L 172.821167 42.138909 
L 172.938455 42.138909 
L 172.938455 42.027758 
L 173.994045 42.027758 
L 173.994045 41.916606 
L 175.166924 41.916606 
L 175.166924 41.805455 
L 175.870652 41.805455 
L 175.870652 41.694303 
L 176.339803 41.694303 
L 176.339803 41.583152 
L 177.160818 41.583152 
L 177.160818 41.360848 
L 177.864545 41.360848 
L 177.864545 41.249697 
L 177.981833 41.249697 
L 177.981833 41.138545 
L 178.685561 41.138545 
L 178.685561 41.027394 
L 178.920136 41.027394 
L 178.920136 40.916242 
L 180.444879 40.916242 
L 180.444879 40.805091 
L 181.383182 40.805091 
L 181.383182 40.693939 
L 182.907924 40.693939 
L 182.907924 40.360485 
L 183.728939 40.360485 
L 183.728939 40.249333 
L 184.080803 40.249333 
L 184.080803 40.138182 
L 184.549955 40.138182 
L 184.549955 40.02703 
L 185.840121 40.02703 
L 185.840121 39.915879 
L 186.309273 39.915879 
L 186.309273 39.804727 
L 188.537742 39.804727 
L 188.537742 39.693576 
L 189.945197 39.693576 
L 189.945197 39.582424 
L 190.062485 39.582424 
L 190.062485 39.137818 
L 192.760106 39.137818 
L 192.760106 38.915515 
L 193.932985 38.915515 
L 193.932985 38.693212 
L 195.692303 38.693212 
L 195.692303 38.582061 
L 196.278742 38.582061 
L 196.278742 38.470909 
L 196.747894 38.470909 
L 196.747894 38.359758 
L 196.865182 38.359758 
L 196.865182 38.248606 
L 198.272636 38.248606 
L 198.272636 38.026303 
L 198.507212 38.026303 
L 198.507212 37.915152 
L 198.6245 37.915152 
L 198.6245 37.804 
L 199.562803 37.804 
L 199.562803 37.692848 
L 200.383818 37.692848 
L 200.383818 37.581697 
L 201.087545 37.581697 
L 201.087545 37.470545 
L 201.322121 37.470545 
L 201.322121 37.137091 
L 202.025848 37.137091 
L 202.025848 37.025939 
L 202.495 37.025939 
L 202.495 36.914788 
L 204.488894 36.914788 
L 204.488894 36.803636 
L 204.72347 36.803636 
L 204.72347 36.692485 
L 204.958045 36.692485 
L 204.958045 36.581333 
L 205.896348 36.581333 
L 205.896348 36.470182 
L 207.186515 36.470182 
L 207.186515 36.35903 
L 209.766848 36.35903 
L 209.766848 36.247879 
L 213.050909 36.247879 
L 213.050909 36.136727 
L 216.686833 36.136727 
L 216.686833 36.025576 
L 218.680727 36.025576 
L 218.680727 35.914424 
L 219.384455 35.914424 
L 219.384455 35.803273 
L 224.779697 35.803273 
L 224.779697 35.692121 
L 225.952576 35.692121 
L 225.952576 35.58097 
L 227.829182 35.58097 
L 227.829182 35.469818 
L 227.94647 35.469818 
L 227.94647 35.358667 
L 229.119348 35.358667 
L 229.119348 35.247515 
L 229.823076 35.247515 
L 229.823076 35.136364 
L 232.403409 35.136364 
L 232.403409 35.136364 
" style="fill:none;stroke:#0000ff;stroke-linecap:square;stroke-width:1.5;"/>
   </g>
   <g id="line2d_14">
    <path clip-path="url(#pbc2de798df)" d="M 56.471591 201.863636 
L 232.403409 35.136364 
" style="fill:none;stroke:#ff0000;stroke-dasharray:5.55,2.4;stroke-dashoffset:0;stroke-width:1.5;"/>
   </g>
   <g id="patch_3">
    <path d="M 47.675 210.2 
L 47.675 26.8 
" style="fill:none;stroke:#000000;stroke-linecap:square;stroke-linejoin:miter;stroke-width:0.8;"/>
   </g>
   <g id="patch_4">
    <path d="M 241.2 210.2 
L 241.2 26.8 
" style="fill:none;stroke:#000000;stroke-linecap:square;stroke-linejoin:miter;stroke-width:0.8;"/>
   </g>
   <g id="patch_5">
    <path d="M 47.675 210.2 
L 241.2 210.2 
" style="fill:none;stroke:#000000;stroke-linecap:square;stroke-linejoin:miter;stroke-width:0.8;"/>
   </g>
   <g id="patch_6">
    <path d="M 47.675 26.8 
L 241.2 26.8 
" style="fill:none;stroke:#000000;stroke-linecap:square;stroke-linejoin:miter;stroke-width:0.8;"/>
   </g>
   <g id="text_15">
    <!-- ROC Curve -->
    <defs>
     <path d="M 44.390625 34.1875 
Q 47.5625 33.109375 50.5625 29.59375 
Q 53.5625 26.078125 56.59375 19.921875 
L 66.609375 0 
L 56 0 
L 46.6875 18.703125 
Q 43.0625 26.03125 39.671875 28.421875 
Q 36.28125 30.8125 30.421875 30.8125 
L 19.671875 30.8125 
L 19.671875 0 
L 9.8125 0 
L 9.8125 72.90625 
L 32.078125 72.90625 
Q 44.578125 72.90625 50.734375 67.671875 
Q 56.890625 62.453125 56.890625 51.90625 
Q 56.890625 45.015625 53.6875 40.46875 
Q 50.484375 35.9375 44.390625 34.1875 
z
M 19.671875 64.796875 
L 19.671875 38.921875 
L 32.078125 38.921875 
Q 39.203125 38.921875 42.84375 42.21875 
Q 46.484375 45.515625 46.484375 51.90625 
Q 46.484375 58.296875 42.84375 61.546875 
Q 39.203125 64.796875 32.078125 64.796875 
z
" id="DejaVuSans-82"/>
     <path d="M 39.40625 66.21875 
Q 28.65625 66.21875 22.328125 58.203125 
Q 16.015625 50.203125 16.015625 36.375 
Q 16.015625 22.609375 22.328125 14.59375 
Q 28.65625 6.59375 39.40625 6.59375 
Q 50.140625 6.59375 56.421875 14.59375 
Q 62.703125 22.609375 62.703125 36.375 
Q 62.703125 50.203125 56.421875 58.203125 
Q 50.140625 66.21875 39.40625 66.21875 
z
M 39.40625 74.21875 
Q 54.734375 74.21875 63.90625 63.9375 
Q 73.09375 53.65625 73.09375 36.375 
Q 73.09375 19.140625 63.90625 8.859375 
Q 54.734375 -1.421875 39.40625 -1.421875 
Q 24.03125 -1.421875 14.8125 8.828125 
Q 5.609375 19.09375 5.609375 36.375 
Q 5.609375 53.65625 14.8125 63.9375 
Q 24.03125 74.21875 39.40625 74.21875 
z
" id="DejaVuSans-79"/>
     <path d="M 64.40625 67.28125 
L 64.40625 56.890625 
Q 59.421875 61.53125 53.78125 63.8125 
Q 48.140625 66.109375 41.796875 66.109375 
Q 29.296875 66.109375 22.65625 58.46875 
Q 16.015625 50.828125 16.015625 36.375 
Q 16.015625 21.96875 22.65625 14.328125 
Q 29.296875 6.6875 41.796875 6.6875 
Q 48.140625 6.6875 53.78125 8.984375 
Q 59.421875 11.28125 64.40625 15.921875 
L 64.40625 5.609375 
Q 59.234375 2.09375 53.4375 0.328125 
Q 47.65625 -1.421875 41.21875 -1.421875 
Q 24.65625 -1.421875 15.125 8.703125 
Q 5.609375 18.84375 5.609375 36.375 
Q 5.609375 53.953125 15.125 64.078125 
Q 24.65625 74.21875 41.21875 74.21875 
Q 47.75 74.21875 53.53125 72.484375 
Q 59.328125 70.75 64.40625 67.28125 
z
" id="DejaVuSans-67"/>
    </defs>
    <g transform="translate(111.746875 20.8)scale(0.12 -0.12)">
     <use xlink:href="#DejaVuSans-82"/>
     <use x="69.482422" xlink:href="#DejaVuSans-79"/>
     <use x="148.193359" xlink:href="#DejaVuSans-67"/>
     <use x="218.017578" xlink:href="#DejaVuSans-32"/>
     <use x="249.804688" xlink:href="#DejaVuSans-67"/>
     <use x="319.628906" xlink:href="#DejaVuSans-117"/>
     <use x="383.007812" xlink:href="#DejaVuSans-114"/>
     <use x="424.121094" xlink:href="#DejaVuSans-118"/>
     <use x="483.300781" xlink:href="#DejaVuSans-101"/>
    </g>
   </g>
   <g id="legend_1">
    <g id="patch_7">
     <path d="M 150.4125 205.2 
L 234.2 205.2 
Q 236.2 205.2 236.2 203.2 
L 236.2 174.84375 
Q 236.2 172.84375 234.2 172.84375 
L 150.4125 172.84375 
Q 148.4125 172.84375 148.4125 174.84375 
L 148.4125 203.2 
Q 148.4125 205.2 150.4125 205.2 
z
" style="fill:#ffffff;opacity:0.8;stroke:#cccccc;stroke-linejoin:miter;"/>
    </g>
    <g id="line2d_15">
     <path d="M 152.4125 180.942187 
L 172.4125 180.942187 
" style="fill:none;stroke:#0000ff;stroke-linecap:square;stroke-width:1.5;"/>
    </g>
    <g id="line2d_16"/>
    <g id="text_16">
     <!-- AUC=0.82 -->
     <defs>
      <path d="M 34.1875 63.1875 
L 20.796875 26.90625 
L 47.609375 26.90625 
z
M 28.609375 72.90625 
L 39.796875 72.90625 
L 67.578125 0 
L 57.328125 0 
L 50.6875 18.703125 
L 17.828125 18.703125 
L 11.1875 0 
L 0.78125 0 
z
" id="DejaVuSans-65"/>
      <path d="M 8.6875 72.90625 
L 18.609375 72.90625 
L 18.609375 28.609375 
Q 18.609375 16.890625 22.84375 11.734375 
Q 27.09375 6.59375 36.625 6.59375 
Q 46.09375 6.59375 50.34375 11.734375 
Q 54.59375 16.890625 54.59375 28.609375 
L 54.59375 72.90625 
L 64.5 72.90625 
L 64.5 27.390625 
Q 64.5 13.140625 57.4375 5.859375 
Q 50.390625 -1.421875 36.625 -1.421875 
Q 22.796875 -1.421875 15.734375 5.859375 
Q 8.6875 13.140625 8.6875 27.390625 
z
" id="DejaVuSans-85"/>
      <path d="M 10.59375 45.40625 
L 73.1875 45.40625 
L 73.1875 37.203125 
L 10.59375 37.203125 
z
M 10.59375 25.484375 
L 73.1875 25.484375 
L 73.1875 17.1875 
L 10.59375 17.1875 
z
" id="DejaVuSans-61"/>
     </defs>
     <g transform="translate(180.4125 184.442187)scale(0.1 -0.1)">
      <use xlink:href="#DejaVuSans-65"/>
      <use x="68.408203" xlink:href="#DejaVuSans-85"/>
      <use x="141.601562" xlink:href="#DejaVuSans-67"/>
      <use x="211.425781" xlink:href="#DejaVuSans-61"/>
      <use x="295.214844" xlink:href="#DejaVuSans-48"/>
      <use x="358.837891" xlink:href="#DejaVuSans-46"/>
      <use x="390.625" xlink:href="#DejaVuSans-56"/>
      <use x="454.248047" xlink:href="#DejaVuSans-50"/>
     </g>
    </g>
    <g id="line2d_17">
     <path d="M 152.4125 195.620312 
L 172.4125 195.620312 
" style="fill:none;stroke:#ff0000;stroke-dasharray:5.55,2.4;stroke-dashoffset:0;stroke-width:1.5;"/>
    </g>
    <g id="line2d_18"/>
    <g id="text_17">
     <!-- AUC=0.5 -->
     <defs>
      <path d="M 10.796875 72.90625 
L 49.515625 72.90625 
L 49.515625 64.59375 
L 19.828125 64.59375 
L 19.828125 46.734375 
Q 21.96875 47.46875 24.109375 47.828125 
Q 26.265625 48.1875 28.421875 48.1875 
Q 40.625 48.1875 47.75 41.5 
Q 54.890625 34.8125 54.890625 23.390625 
Q 54.890625 11.625 47.5625 5.09375 
Q 40.234375 -1.421875 26.90625 -1.421875 
Q 22.3125 -1.421875 17.546875 -0.640625 
Q 12.796875 0.140625 7.71875 1.703125 
L 7.71875 11.625 
Q 12.109375 9.234375 16.796875 8.0625 
Q 21.484375 6.890625 26.703125 6.890625 
Q 35.15625 6.890625 40.078125 11.328125 
Q 45.015625 15.765625 45.015625 23.390625 
Q 45.015625 31 40.078125 35.4375 
Q 35.15625 39.890625 26.703125 39.890625 
Q 22.75 39.890625 18.8125 39.015625 
Q 14.890625 38.140625 10.796875 36.28125 
z
" id="DejaVuSans-53"/>
     </defs>
     <g transform="translate(180.4125 199.120312)scale(0.1 -0.1)">
      <use xlink:href="#DejaVuSans-65"/>
      <use x="68.408203" xlink:href="#DejaVuSans-85"/>
      <use x="141.601562" xlink:href="#DejaVuSans-67"/>
      <use x="211.425781" xlink:href="#DejaVuSans-61"/>
      <use x="295.214844" xlink:href="#DejaVuSans-48"/>
      <use x="358.837891" xlink:href="#DejaVuSans-46"/>
      <use x="390.625" xlink:href="#DejaVuSans-53"/>
     </g>
    </g>
   </g>
  </g>
 </g>
 <defs>
  <clipPath id="pbc2de798df">
   <rect height="183.4" width="193.525" x="47.675" y="26.8"/>
  </clipPath>
 </defs>
</svg>
